<svg xmlns="http://www.w3.org/2000/svg" style="display: none;">
  <defs>
    <symbol id="number" viewBox="0 0 24 24">
      <path d="M1,9h24M1,17h24M10,1l-3,24M19,1l-3,24" style="stroke:#1e1e1e; stroke-linecap:round; stroke-linejoin:round; stroke-width:2px;" />
    </symbol>
    <symbol id="class" viewBox="0 0 24 24">
      <path d="M12,24c-1.66,0-3.22-.31-4.68-.95-1.46-.63-2.73-1.48-3.81-2.56s-1.94-2.35-2.57-3.81c-.63-1.46-.94-3.02-.94-4.68s.31-3.22.94-4.68,1.49-2.73,2.57-3.81,2.35-1.94,3.81-2.57,3.02-.94,4.68-.94,3.22.31,4.68.94c1.46.63,2.73,1.49,3.81,2.57s1.94,2.35,2.56,3.81c.63,1.46.95,3.02.95,4.68s-.31,3.22-.95,4.68c-.63,1.46-1.48,2.73-2.56,3.81s-2.35,1.94-3.81,2.56c-1.46.63-3.02.95-4.68.95ZM12,21.6c2.68,0,4.95-.93,6.81-2.79s2.79-4.13,2.79-6.81-.93-4.95-2.79-6.81-4.13-2.79-6.81-2.79-4.95.93-6.81,2.79-2.79,4.13-2.79,6.81.93,4.95,2.79,6.81,4.13,2.79,6.81,2.79Z" />
      <path d="M12.29,15.89c-.5,0-.97-.09-1.4-.28-.44-.19-.82-.45-1.14-.77-.32-.32-.58-.71-.77-1.14-.19-.44-.28-.91-.28-1.4s.09-.97.28-1.4c.19-.44.45-.82.77-1.14.32-.32.7-.58,1.14-.77.44-.19.91-.28,1.4-.28s.97.09,1.4.28c.44.19.82.45,1.14.77.32.32.58.7.77,1.14.19.44.28.91.28,1.4s-.09.97-.28,1.4c-.19.44-.45.82-.77,1.14-.32.32-.71.58-1.14.77-.44.19-.91.28-1.4.28ZM12.29,15.17c.8,0,1.49-.28,2.04-.84s.84-1.24.84-2.04-.28-1.48-.84-2.04-1.24-.84-2.04-.84-1.48.28-2.04.84-.84,1.24-.84,2.04.28,1.49.84,2.04,1.24.84,2.04.84Z" />
    </symbol>
    <symbol id="notes" viewBox="0 0 24 24">
      <path d="M2.67,21.33h1.9l13.03-13.03-1.9-1.9L2.67,19.43v1.9ZM0,24v-5.67L17.6.77c.27-.24.56-.43.88-.57.32-.13.66-.2,1.02-.2s.7.07,1.03.2c.33.13.62.33.87.6l1.83,1.87c.27.24.46.53.58.87.12.33.18.67.18,1,0,.36-.06.69-.18,1.02-.12.32-.32.62-.58.88L5.67,24H0ZM16.63,7.37l-.93-.97,1.9,1.9-.97-.93Z" />
    </symbol>
    <symbol id="print" viewBox="0 0 28 28">
      <path d="M5.8,9.4V1h14.4v8.4M5.8,20.2h-2.4c-.64,0-1.25-.25-1.7-.7s-.7-1.06-.7-1.7v-6c0-.64.25-1.25.7-1.7s1.06-.7,1.7-.7h19.2c.64,0,1.25.25,1.7.7s.7,1.06.7,1.7v6c0,.64-.25,1.25-.7,1.7s-1.06.7-1.7.7h-2.4M5.8,15.4h14.4v9.6H5.8v-9.6Z" style="stroke:#1e1e1e; fill:none; stroke-linecap:round; stroke-linejoin:round; stroke-width:2px;" />
    </symbol>
    <symbol id="id" viewBox="0 0 24 24">
      <path d="M3.65,0v24H0V0h3.65ZM14.36,24h-4.52l.03-3.28h4.49c1.31,0,2.4-.32,3.29-.97.89-.65,1.56-1.58,2.01-2.79.46-1.21.68-2.65.68-4.32v-1.3c0-1.3-.13-2.45-.39-3.45-.25-1-.63-1.84-1.13-2.52-.49-.68-1.11-1.2-1.83-1.55-.72-.35-1.55-.53-2.49-.53h-4.74V0h4.74c1.41,0,2.69.27,3.85.81,1.16.53,2.17,1.29,3.01,2.29.85,1,1.51,2.2,1.96,3.59s.68,2.96.68,4.68v1.27c0,1.73-.23,3.29-.68,4.68s-1.11,2.59-1.96,3.59c-.85.99-1.87,1.75-3.05,2.29-1.17.53-2.49.79-3.94.79ZM11.86,0v24h-3.65V0h3.65Z"/>
    </symbol>
    <symbol id="index" viewBox="0 0 24 24">
      <path d="M24,24c0-6.59-5.37-11.93-12-11.93S0,17.41,0,24M2.71,24c0-5.1,4.16-9.24,9.29-9.24s9.29,4.14,9.29,9.24" style="fill-rule:evenodd;"/>
      <polygon points="18.3 .8 5.7 .8 12 7.93 18.3 .8" style="fill-rule:evenodd;"/>
      <polyline points="0 23.75 0 0 24 0 24 23.75" style="fill:none; fill-rule:evenodd;"/>
    </symbol>
    <symbol id="box" viewBox="0 0 24 24">
      <path d="M2.67,24c-.73,0-1.36-.26-1.88-.78-.52-.52-.78-1.15-.78-1.88V2.67c0-.73.26-1.36.78-1.88s1.15-.78,1.88-.78h18.67c.73,0,1.36.26,1.88.78.52.52.78,1.15.78,1.88v18.67c0,.73-.26,1.36-.78,1.88-.52.52-1.15.78-1.88.78H2.67ZM2.67,21.33h18.67V2.67H2.67v18.67Z"/>
    </symbol>
    <symbol id="eye" viewBox="0 0 24 24">
    <path d="M1 12C1 12 5 4 12 4C19 4 23 12 23 12C23 12 19 20 12 20C5 20 1 12 1 12Z" stroke="#1E1E1E" stroke-width="2.5" stroke-linecap="round" fill="none" stroke-linejoin="round"/>
    <path d="M12 15C13.6569 15 15 13.6569 15 12C15 10.3431 13.6569 9 12 9C10.3431 9 9 10.3431 9 12C9 13.6569 10.3431 15 12 15Z" stroke="#1E1E1E" fill="none" stroke-width="2.5" stroke-linecap="round" stroke-linejoin="round"/>
    </symbol>
    <symbol id="eye-off" viewBox="0 0 24 24">
      <path d="M17.94 17.94C16.2306 19.243 14.1491 19.9649 12 20C5 20 1 12 1 12C2.24389 9.6819 3.96914 7.65661 6.06 6.06M9.9 4.24C10.5883 4.07888 11.2931 3.99834 12 4C19 4 23 12 23 12C22.393 13.1356 21.6691 14.2047 20.84 15.19M14.12 14.12C13.8454 14.4147 13.5141 14.6512 13.1462 14.8151C12.7782 14.9791 12.3809 15.0673 11.9781 15.0744C11.5753 15.0815 11.1752 15.0074 10.8016 14.8565C10.4281 14.7056 10.0887 14.481 9.80385 14.1962C9.51897 13.9113 9.29439 13.5719 9.14351 13.1984C8.99262 12.8248 8.91853 12.4247 8.92563 12.0219C8.93274 11.6191 9.02091 11.2218 9.18488 10.8538C9.34884 10.4859 9.58525 10.1546 9.88 9.88M1 1L23 23" stroke="#1E1E1E" fill="none" stroke-width="2.5" stroke-linecap="round" stroke-linejoin="round"/>
    </symbol>
  </defs>
</svg>